<svg xmlns="http://www.w3.org/2000/svg" xmlns:xlink="http://www.w3.org/1999/xlink" version="1.1" x="0px" y="0px" width="175.25px" height="72px" viewBox="0 0 175.25 72" enable-background="new 0 0 175.25 72" xml:space="preserve">
<g id="Layer_1">
	<g>
		<g>
			<path fill-rule="evenodd" clip-rule="evenodd" d="M66.519 5.702c1.918 0.8 2.5 1.8 2.3 3.9 c-0.629 5.057-1.29 10.11-1.91 15.168c-0.353 2.882-0.65 5.771-0.993 8.839c0.575-0.644 1.028-1.187 1.518-1.693 c1.744-1.807 3.738-3.174 6.307-3.5c4.341-0.55 7.1 1.3 7.9 5.613c0.378 2.1 0.3 4.4 0.3 6.5 c-0.12 3.247-0.555 6.485-0.636 9.732c-0.044 1.8 0.3 3.6 0.6 5.325c0.182 1 0.7 2 1.9 2.1 c1.183 0.1 1.785-0.813 2.336-1.729c0.599-0.994 0.888-1.913 0.541-3.157c-0.689-2.474-0.481-5.037-0.196-7.564 c0.363-3.223 1.185-6.32 2.824-9.149c2.279-3.932 5.524-6.627 10.032-7.613c1.691-0.37 3.397-0.482 5.1 0.3 c0.196 0.1 0.5 0 0.739-0.063c3.062-1.043 4.357-0.563 5.9 2.302c1.376 2.6 2 5.4 2.4 8.2 c0.585 4.1 0.5 8.281-0.294 12.389c-0.779 3.811-2.196 7.321-5.014 10.13c-4.579 4.564-12.102 4.561-16.691-0.022 c-0.727-0.726-1.379-1.524-2.072-2.296c-0.983 1.949-2.303 3.65-4.304 4.682c-4.355 2.244-11.146 1.296-13.059-5.687 c-0.824-3.007-0.886-6.049-0.55-9.122c0.359-3.281 0.731-6.562 1.043-9.847c0.068-0.724-0.008-1.488-0.167-2.2 c-0.32-1.43-1.3-1.861-2.641-1.248c-1.225 0.56-1.814 1.657-2.292 2.815c-1.007 2.445-1.44 5.037-1.556 7.6 c-0.18 4.066-0.327 8.146-0.207 12.211c0.123 4.149-2.241 5.571-5.287 6.206c-0.925 0.192-1.886 0.232-2.834 0.3 c-1.005 0.062-1.567-0.271-1.858-1.233c-0.25-0.825-0.474-1.704-0.458-2.556c0.098-5.366 0.201-10.735 0.43-16.098 c0.177-4.146 0.499-8.289 0.831-12.427c0.301-3.766 0.676-7.527 1.068-11.285c0.281-2.705 0.721-5.395 0.947-8.104 c0.238-2.854 1.749-4.833 4.077-6.224c1.152-0.688 2.486-1.071 3.738-1.592C66.307 5.7 66.4 5.7 66.5 5.702z M99.368 34.731c-0.324 0.623-0.672 1.208-0.944 1.826c-1.436 3.258-1.745 6.712-1.746 10.217c0 2.9 0.2 5.9 1.5 8.6 c0.416 0.9 1.1 1.7 1.8 2.387c0.888 0.8 2 0.8 2.9-0.131c0.535-0.56 1.082-1.227 1.305-1.943 c0.512-1.651 0.989-3.343 1.19-5.053c0.468-3.961 0.171-7.866-1.648-11.51C102.735 37.2 101.5 35.6 99.4 34.731z"/>
			<path d="M80.456 69.237c-5.019 0-9.161-2.599-11.345-6.949c-0.833 2.83-3.025 5.515-8.035 6.6 c-1.122 0.233-2.19 0.295-3.132 0.35l-0.28 0.017c-2.894 0.162-5.107-1.367-5.925-4.068c-0.326-1.077-0.655-2.368-0.629-3.787 c0.105-5.771 0.21-10.972 0.433-16.195c0.177-4.142 0.485-8.146 0.84-12.575c0.318-3.979 0.723-7.986 1.077-11.38 c0.123-1.185 0.276-2.369 0.429-3.552c0.2-1.546 0.389-3.006 0.511-4.47c0.33-3.947 2.409-7.172 6.012-9.325 c1.105-0.66 2.22-1.077 3.203-1.445c0.352-0.132 0.705-0.263 1.05-0.406l0.738-0.307h1.907l0.731 0.3 c3.605 1.5 5.2 4.2 4.7 8.063c-0.275 2.216-0.557 4.432-0.839 6.647c-0.349 2.739-0.697 5.479-1.034 8.2 c0.754-0.243 1.527-0.414 2.322-0.515c6.539-0.825 11.2 2.6 12.3 8.883c0.061 0.3 0.1 0.7 0.2 1 c0.036-0.062 0.071-0.125 0.107-0.188c2.974-5.13 7.226-8.331 12.638-9.515c2.424-0.531 4.387-0.504 6.3 0.1 c1.048-0.297 1.958-0.438 2.816-0.438c4.355 0 6.3 3.6 7 4.919c1.803 3.4 2.5 6.9 2.8 9.6 c0.671 4.8 0.6 9.377-0.336 13.75c-1.05 5.132-3.048 9.109-6.108 12.161c-2.967 2.957-6.928 4.586-11.152 4.6 c-3.706 0-7.209-1.252-10.021-3.555c-0.87 0.828-1.829 1.51-2.886 2.055C84.869 68.7 82.7 69.2 80.5 69.237z M73.441 32.515c1.332 0.8 2.3 2.2 2.7 3.912c0.267 1.2 0.3 2.4 0.2 3.449c-0.258 2.717-0.557 5.428-0.855 8.1 l-0.194 1.767c-0.323 2.953-0.186 5.4 0.4 7.631c0.866 3.2 3 3.8 4.7 3.825c0.289 0 0.581-0.021 0.869-0.063 c-1.791-0.854-3.085-2.608-3.485-4.874l-0.034-0.192c-0.316-1.791-0.676-3.82-0.623-5.929c0.045-1.833 0.195-3.636 0.339-5.379 c0.126-1.523 0.245-2.963 0.298-4.4c0.071-1.919 0.114-3.94-0.199-5.701c-0.397-2.24-1.242-2.407-2.487-2.407 c-0.286 0-0.599 0.021-0.929 0.063C73.946 32.4 73.7 32.4 73.4 32.515z M64.611 10.7 c-0.034 0.019-0.066 0.038-0.098 0.057c-1.739 1.04-2.057 2.115-2.141 3.122c-0.137 1.644-0.347 3.264-0.549 4.8 c-0.145 1.117-0.289 2.234-0.406 3.354c-0.349 3.348-0.748 7.295-1.059 11.191c-0.349 4.349-0.651 8.274-0.821 12.3 c-0.214 5.004-0.318 10.023-0.419 15.569c0.114-0.018 0.224-0.036 0.329-0.058c2.154-0.449 2.142-0.849 2.103-2.172 c-0.127-4.316 0.034-8.545 0.209-12.506c0.036-0.808 0.098-1.589 0.186-2.348l-1.434 1.605l1.703-15.29 c0.225-2.058 0.442-4.056 0.687-6.051c0.349-2.851 0.711-5.701 1.074-8.55C64.188 14 64.4 12.3 64.6 10.672z M90.648 55.015l1.604 1.785c0.235 0.3 0.5 0.5 0.7 0.79c0.428 0.5 0.8 1 1.2 1.4 c0.918 0.9 2 1.6 3.3 1.94c-0.091-0.078-0.181-0.159-0.269-0.243c-1.111-1.062-2.016-2.296-2.618-3.571 c-1.638-3.471-1.863-6.997-1.863-10.291c0.001-3.108 0.211-7.122 1.771-11.074c-0.643 0.706-1.23 1.52-1.766 2.4 c-1.215 2.097-1.971 4.579-2.311 7.592c-0.244 2.166-0.423 4.3 0.1 6.042C90.786 53 90.8 54.1 90.6 55.015z M100.876 42.85c-0.162 1.354-0.198 2.687-0.198 3.926c0 1.8 0.1 3.4 0.4 4.858c0.111-0.51 0.198-1 0.255-1.484 C101.678 47.3 101.5 45 100.9 42.85z M103.768 32.784c1.391 1.2 2.5 2.7 3.5 4.5 c1.702 3.4 2.4 7.2 2.2 11.484c0.376-2.869 0.346-5.877-0.092-8.972c-0.426-3.014-1.036-5.143-1.979-6.902 c-0.146-0.273-0.267-0.475-0.361-0.62c-0.173 0.044-0.406 0.11-0.716 0.216C105.435 32.8 104.6 32.9 103.8 32.784z"/>
		</g>
		<g>
			<path fill-rule="evenodd" clip-rule="evenodd" d="M26.432 47.818c-0.133 0.902-0.311 1.802-0.388 2.7 c-0.191 2.239-0.323 4.483-0.507 6.723c-0.081 0.973-0.19 1.947-0.364 2.907c-0.233 1.294-0.849 2.346-2 3.1 c-1.402 0.909-2.818 1.748-4.45 2.189c-1.463 0.395-2.664-0.06-3.679-1.071c-2.006-1.998-3.194-4.511-4.264-7.074 c-2.471-5.923-4.023-12.098-4.898-18.444c-0.173-1.254-0.177-2.53-0.237-3.798c-0.048-1.006 0.393-1.844 0.999-2.6 c1.55-1.936 3.575-3.197 5.896-3.969c1.905-0.633 3.4 0.5 3.6 2.542c0.122 1.4 0.2 2.8 0.3 4.3 c0.3 4.3 1.1 8.6 2.3 12.753c0.519 1.9 1.1 3.8 1.9 5.657c0.103-1.449 0.181-2.901 0.312-4.35 c0.456-5.021 0.889-10.046 2.512-14.874c0.601-1.787 1.671-3.137 3.337-4.036c1.834-0.989 3.732-1.729 5.854-1.712 c1.843 0 2.6 0.7 2.6 2.546c-0.018 5.8 0.6 11.4 2.1 17.012c0.5 1.8 1.1 3.7 1.9 5.5 c0.174-1.654 0.318-3.313 0.529-4.964c0.76-5.948 1.699-11.861 4.138-17.405c0.517-1.174 1.244-2.26 1.911-3.363 c0.457-0.755 1.273-0.968 2.055-1.013c2.461-0.139 4.8 0.4 6.8 1.869c1.049 0.8 1.3 1.7 0.7 2.9 c-0.901 1.7-1.953 3.319-2.887 5.002c-3.79 6.824-6.343 14.114-8.118 21.694c-0.12 0.514-0.239 1.027-0.361 1.5 c-0.333 1.39-0.99 2.583-2.266 3.296c-1.282 0.716-2.587 1.405-3.934 1.986c-1.505 0.649-2.773 0.133-3.831-1.049 c-1.479-1.652-2.516-3.575-3.456-5.561c-1.538-3.25-2.671-6.645-3.624-10.104c-0.073-0.267-0.151-0.532-0.227-0.798 C26.53 47.8 26.5 47.8 26.4 47.818z"/>
			<path d="M22.161 68.425c-0.739 0.341-1.534 0.646-2.396 0.878c-0.69 0.187-1.383 0.28-2.063 0.28c-1.413 0-3.51-0.413-5.483-2.38 c-2.589-2.578-4.006-5.671-5.131-8.366c-2.501-5.996-4.192-12.354-5.169-19.439c-0.158-1.142-0.197-2.215-0.234-3.252 l-0.036-0.902c-0.088-1.85 0.542-3.629 1.872-5.29c1.946-2.429 4.556-4.2 7.757-5.264c0.762-0.253 1.536-0.382 2.299-0.382 c3.485 0 6.2 2.7 6.6 6.378c0.032 0.4 0.1 0.7 0.1 1.106c1.012-2.107 2.573-3.739 4.654-4.863 c1.745-0.94 4.439-2.191 7.68-2.191h0.107c4.04 0 6.5 2.5 6.5 6.558c-0.001 0.3 0 0.6 0 0.8 c0.292-0.788 0.607-1.574 0.952-2.355c0.52-1.182 1.168-2.231 1.741-3.157l0.408-0.665c0.617-1.021 2.119-2.757 5.249-2.937 c3.628-0.204 6.8 0.7 9.4 2.664c2.642 2 3.4 5.1 1.8 7.995c-0.552 1.043-1.141 2.031-1.71 3 c-0.412 0.69-0.823 1.381-1.213 2.083c-3.354 6.039-5.879 12.799-7.72 20.665l-0.365 1.558c-0.801 3.348-2.729 5.033-4.206 5.9 c-0.559 0.312-1.208 0.668-1.917 1.033l-0.456 0.236l-0.468 0.226c-0.471 0.229-0.96 0.456-1.46 0.7 c-0.938 0.405-1.903 0.61-2.865 0.61c-1.435 0-3.56-0.462-5.53-2.664c-1.04-1.162-1.885-2.408-2.597-3.635 c-0.666 1.337-1.664 2.453-2.958 3.293c-0.532 0.345-1.098 0.703-1.708 1.1 M9.65 35.106c0.011 0.2 0 0.5 0 0.7 c0.032 0.9 0.1 1.7 0.2 2.451c0.881 6.4 2.4 12.1 4.6 17.45c1.058 2.5 2 4.4 3.4 5.8 c0.435-0.136 0.872-0.324 1.335-0.565l-2.297-5.784c-0.757-1.904-1.415-3.894-2.011-6.081c-1.336-4.897-2.127-9.323-2.418-13.529 l-0.066-0.964c-0.039-0.566-0.077-1.133-0.118-1.699c-1.019 0.528-1.853 1.203-2.524 2 C9.714 35 9.7 35.1 9.7 35.106z M26.579 43.817h3.02l1.064 3.738c1.036 3.8 2.1 6.8 3.4 9.5 c0.72 1.5 1.5 3.1 2.6 4.399c0.355-0.164 0.707-0.335 1.048-0.507l-2.292-5.629c-0.807-1.981-1.484-3.978-2.012-5.935 c-1.393-5.152-2.122-10.54-2.22-16.423c-0.747 0.188-1.557 0.529-2.531 1.055c-0.731 0.395-1.15 0.913-1.445 1.8 c-0.873 2.595-1.369 5.286-1.721 8.076L26.579 43.817z M48.599 30.996c-0.439 0.712-0.848 1.387-1.123 2 c-1.646 3.742-2.555 7.775-3.193 11.772c1.346-3.493 2.879-6.78 4.615-9.908c0.429-0.772 0.881-1.533 1.334-2.293 c0.239-0.402 0.473-0.795 0.699-1.183C50.247 31.1 49.5 31 48.6 30.996z"/>
		</g>
		<g>
			<path fill-rule="evenodd" clip-rule="evenodd" d="M150.739 38.43c0.926 0.5 1.8 1.1 2.8 1.6 c2.896 1.5 5.9 2.9 8.7 4.538c2.604 1.5 4.8 3.5 6.2 6.32c2.361 4.9 1 11.538-5.172 13.7 c-5.701 2.017-11.258 1.762-16.423-1.717c-0.653-0.44-1.231-0.993-1.882-1.524c-1.097 1.405-2.393 2.651-4.135 3.2 c-4.641 1.581-10.438 0.238-12.083-6.286c-0.485-1.923-0.665-3.964-0.689-5.954c-0.065-5.348 0.319-10.676 1.112-15.972 c0.589-3.934 3.678-7.344 7.365-8.055c1.745-0.336 3.3 0.8 3.3 2.609c-0.039 1.627-0.268 3.261-0.55 4.9 c-0.952 5.414-1.39 10.857-0.978 16.344c0.104 1.4 0.4 2.8 0.8 4.106c0.283 1.1 1.1 1.6 1.8 1.5 c1.048-0.145 1.723-0.931 1.856-2.017c0.444-3.595 2.461-6.041 5.696-7.501c1.344-0.606 2.372-0.071 2.7 1.4 c0.304 1.4 0.4 2.8 0.7 4.137c0.37 1.8 1 3.5 2.4 4.738c1.194 1.1 2.6 1.5 4.2 1 c1.782-0.551 2.487-2.44 1.747-4.514c-0.71-1.989-2.112-3.472-3.64-4.82c-2.26-1.995-4.612-3.884-6.897-5.85 c-1.686-1.45-3.316-2.962-4.476-4.898c-0.76-1.271-1.078-2.644-0.85-4.103c0.302-1.92 1.491-3.163 3.298-3.674 c2.404-0.68 4.873-1.128 7.284-1.789c3.146-0.862 6.264-1.836 9.394-2.761c0.732-0.216 1.457-0.473 2.201-0.632 c1.75-0.373 2.9 0.5 2.9 2.298c-0.039 2.794-0.927 5.269-2.891 7.323c-0.744 0.778-1.698 1.051-2.679 1.2 c-3.569 0.729-7.192 0.811-10.818 0.83c-0.627 0.004-1.255 0.001-1.883 0.001C150.821 38.2 150.8 38.3 150.7 38.43z"/>
			<path d="M156.297 69.884c-3.912 0-7.622-1.078-11.042-3.207c-0.892 0.683-1.951 1.301-3.206 1.7 c-1.588 0.541-3.222 0.815-4.856 0.815c-6.104 0-10.853-3.798-12.394-9.911c-0.513-2.034-0.778-4.285-0.811-6.883 c-0.066-5.454 0.322-11.044 1.156-16.613c0.849-5.67 5.193-10.354 10.564-11.39c2.293-0.444 4.6 0.3 6.2 1.9 c0.771 0.8 1.3 1.7 1.6 2.799c0.816-0.583 1.761-1.033 2.815-1.332c1.35-0.381 2.691-0.688 3.989-0.986 c1.158-0.266 2.252-0.517 3.325-0.811c2.141-0.587 4.327-1.244 6.441-1.88c0.958-0.288 1.917-0.576 2.876-0.859l0.589-0.181 c0.565-0.176 1.205-0.376 1.909-0.527c2.294-0.49 4.5 0.1 5.9 1.583c1.161 1.2 1.8 2.8 1.8 4.7 c-0.056 3.939-1.4 7.313-3.999 10.032c-1.684 1.762-3.805 2.209-4.74 2.399c3.507 2.1 6.1 4.8 7.6 8 c1.822 3.8 2 8.1 0.4 11.871c-1.426 3.444-4.227 6.054-7.886 7.35C161.724 69.4 159 69.9 156.3 69.884z M135.567 32.997c-1.273 0.878-2.271 2.392-2.511 4c-0.771 5.146-1.13 10.305-1.068 15.331c0.023 2 0.2 3.6 0.6 5 c0.647 2.6 2.2 3.9 4.6 3.867c0.292 0 0.59-0.021 0.89-0.062c-1.417-0.742-2.514-2.111-2.977-3.853 c-0.342-1.284-0.752-2.994-0.891-4.836c-0.406-5.421-0.071-11.091 1.027-17.335C135.382 34.3 135.5 33.6 135.6 32.997z M146.345 57.392l1.081 0.884c0.234 0.2 0.5 0.4 0.7 0.575c0.351 0.3 0.7 0.6 0.9 0.7 c0.439 0.3 0.9 0.6 1.3 0.802c-1.618-1.976-2.243-4.21-2.578-5.814c-0.066-0.317-0.123-0.627-0.172-0.931 c-0.552 0.71-0.875 1.562-1.003 2.596C146.542 56.6 146.5 57 146.3 57.392z M159.535 47.6 c1.604 1.5 3.3 3.4 4.2 5.962c0.773 2.2 0.7 4.38-0.235 6.229c-0.04 0.08-0.082 0.159-0.125 0.2 c0.75-0.538 1.307-1.239 1.663-2.1c0.666-1.61 0.566-3.615-0.269-5.364c-0.859-1.801-2.352-3.301-4.561-4.585 C159.98 47.9 159.8 47.8 159.5 47.646z M142.298 42.627c-0.161 1.778-0.244 3.503-0.249 5.2 c0.806-0.853 1.745-1.609 2.812-2.263C143.973 44.7 143.1 43.7 142.3 42.627z M164.749 31 c-0.794 0.235-1.588 0.475-2.383 0.713c-2.16 0.649-4.395 1.321-6.629 1.934c-0.575 0.158-1.147 0.303-1.716 0.4 c2.995-0.035 5.919-0.162 8.742-0.738c0.393-0.08 0.573-0.136 0.654-0.167C164.027 32.6 164.5 31.8 164.7 31.029z"/>
		</g>
		<g>
			<path fill-rule="evenodd" clip-rule="evenodd" d="M143.297 14.831c-0.107 3.668-1.071 6.268-3.313 8.3 c-1.078 0.979-2.341 1.594-3.809 1.749c-1.5 0.158-3.147-0.784-3.773-2.361c-0.939-2.37-1.179-4.798-0.146-7.227 c1.234-2.905 5.372-4.806 8.359-3.847C142.451 12 143.3 13.4 143.3 14.831z"/>
			<path d="M135.845 28.9c-3.119 0-5.997-1.971-7.161-4.902c-1.434-3.615-1.47-7.07-0.108-10.269 c1.607-3.784 5.965-6.532 10.359-6.532c1.013 0 2 0.1 2.9 0.442c3.439 1.1 5.6 4 5.5 7.3 c-0.142 4.84-1.61 8.382-4.622 11.116c-1.754 1.594-3.799 2.524-6.076 2.765C136.346 28.9 136.1 28.9 135.8 28.9z M138.935 15.197c-1.27 0-2.678 0.909-2.997 1.662c-0.346 0.813-0.64 2 0.1 3.999c0.447-0.099 0.842-0.317 1.247-0.685 c0.932-0.846 1.809-2.037 1.982-4.947C139.191 15.2 139.1 15.2 138.9 15.197z"/>
		</g>
		<g>
			<path fill-rule="evenodd" clip-rule="evenodd" d="M114.141 58.876c-0.221-5.43 5.699-8.467 9.35-7.101 c1.444 0.5 2.4 1.7 2.4 3.277c0.113 3.277-0.853 6.14-3.334 8.387c-0.873 0.791-1.883 1.35-3.051 1.6 c-2.068 0.417-3.853-0.489-4.552-2.481C114.584 61.4 114.4 60.1 114.1 58.876z"/>
			<path d="M118.582 69.125c-3.401 0-6.222-2.015-7.359-5.257c-0.38-1.084-0.588-2.141-0.771-3.073 c-0.067-0.346-0.135-0.693-0.213-1.036l-0.08-0.355l-0.016-0.365c-0.12-2.964 0.954-5.783 3.024-7.939 c2.193-2.285 5.34-3.649 8.417-3.649c1.167 0 2.3 0.2 3.3 0.58c3.001 1.1 4.9 3.8 5 6.9 c0.161 4.685-1.401 8.551-4.647 11.489c-1.453 1.316-3.116 2.172-4.942 2.542C119.752 69.1 119.2 69.1 118.6 69.125z M118.138 58.436c0.058 0.3 0.1 0.5 0.2 0.82c0.134 0.7 0.3 1.3 0.4 1.854c0.008-0.002 0.016-0.003 0.024-0.005 c0.403-0.082 0.771-0.282 1.155-0.629c1.416-1.282 2.047-2.831 2.028-4.992c-0.093-0.021-0.208-0.034-0.357-0.034 c-0.749 0-1.857 0.368-2.646 1.19C118.435 57.2 118.2 57.8 118.1 58.436z"/>
		</g>
	</g>
</g>
<g id="Layer_2">
	<g>
		<path fill-rule="evenodd" clip-rule="evenodd" fill="#F1F2F2" d="M66.519 5.702c1.918 0.8 2.5 1.8 2.3 3.9 c-0.629 5.057-1.29 10.11-1.91 15.168c-0.353 2.882-0.65 5.771-0.993 8.839c0.575-0.644 1.028-1.187 1.518-1.693 c1.744-1.807 3.738-3.174 6.307-3.5c4.341-0.55 7.1 1.3 7.9 5.613c0.378 2.1 0.3 4.4 0.3 6.5 c-0.12 3.247-0.555 6.485-0.636 9.732c-0.044 1.8 0.3 3.6 0.6 5.325c0.182 1 0.7 2 1.9 2.1 c1.183 0.1 1.785-0.813 2.336-1.729c0.599-0.994 0.888-1.913 0.541-3.157c-0.689-2.474-0.481-5.037-0.196-7.564 c0.363-3.223 1.185-6.32 2.824-9.149c2.279-3.932 5.524-6.627 10.032-7.613c1.691-0.37 3.397-0.482 5.1 0.3 c0.196 0.1 0.5 0 0.739-0.063c3.062-1.043 4.357-0.563 5.9 2.302c1.376 2.6 2 5.4 2.4 8.2 c0.585 4.1 0.5 8.281-0.294 12.389c-0.779 3.811-2.196 7.321-5.014 10.13c-4.579 4.564-12.102 4.561-16.691-0.022 c-0.727-0.726-1.379-1.524-2.072-2.296c-0.983 1.949-2.303 3.65-4.304 4.682c-4.355 2.244-11.146 1.296-13.059-5.687 c-0.824-3.007-0.886-6.049-0.55-9.122c0.359-3.281 0.731-6.562 1.043-9.847c0.068-0.724-0.008-1.488-0.167-2.2 c-0.32-1.43-1.3-1.861-2.641-1.248c-1.225 0.56-1.814 1.657-2.292 2.815c-1.007 2.445-1.44 5.037-1.556 7.6 c-0.18 4.066-0.327 8.146-0.207 12.211c0.123 4.149-2.241 5.571-5.287 6.206c-0.925 0.192-1.886 0.232-2.834 0.3 c-1.005 0.062-1.567-0.271-1.858-1.233c-0.25-0.825-0.474-1.704-0.458-2.556c0.098-5.366 0.201-10.735 0.43-16.098 c0.177-4.146 0.499-8.289 0.831-12.427c0.301-3.766 0.676-7.527 1.068-11.285c0.281-2.705 0.721-5.395 0.947-8.104 c0.238-2.854 1.749-4.833 4.077-6.224c1.152-0.688 2.486-1.071 3.738-1.592C66.307 5.7 66.4 5.7 66.5 5.702z M99.368 34.731c-0.324 0.623-0.672 1.208-0.944 1.826c-1.436 3.258-1.745 6.712-1.746 10.217c0 2.9 0.2 5.9 1.5 8.6 c0.416 0.9 1.1 1.7 1.8 2.387c0.888 0.8 2 0.8 2.9-0.131c0.535-0.56 1.082-1.227 1.305-1.943 c0.512-1.651 0.989-3.343 1.19-5.053c0.468-3.961 0.171-7.866-1.648-11.51C102.735 37.2 101.5 35.6 99.4 34.731z"/>
		<path fill-rule="evenodd" clip-rule="evenodd" fill="#F1F2F2" d="M26.432 47.818c-0.133 0.902-0.311 1.802-0.388 2.7 c-0.191 2.239-0.323 4.483-0.507 6.723c-0.081 0.973-0.19 1.947-0.364 2.907c-0.233 1.294-0.849 2.346-2 3.1 c-1.402 0.909-2.818 1.748-4.45 2.189c-1.463 0.395-2.664-0.06-3.679-1.071c-2.006-1.998-3.194-4.511-4.264-7.074 c-2.471-5.923-4.023-12.098-4.898-18.444c-0.173-1.254-0.177-2.53-0.237-3.798c-0.048-1.006 0.393-1.844 0.999-2.6 c1.55-1.936 3.575-3.197 5.896-3.969c1.905-0.633 3.4 0.5 3.6 2.542c0.122 1.4 0.2 2.8 0.3 4.3 c0.3 4.3 1.1 8.6 2.3 12.753c0.519 1.9 1.1 3.8 1.9 5.657c0.103-1.449 0.181-2.901 0.312-4.35 c0.456-5.021 0.889-10.046 2.512-14.874c0.601-1.787 1.671-3.137 3.337-4.036c1.834-0.989 3.732-1.729 5.854-1.712 c1.843 0 2.6 0.7 2.6 2.546c-0.018 5.8 0.6 11.4 2.1 17.012c0.5 1.8 1.1 3.7 1.9 5.5 c0.174-1.654 0.318-3.313 0.529-4.964c0.76-5.948 1.699-11.861 4.138-17.405c0.517-1.174 1.244-2.26 1.911-3.363 c0.457-0.755 1.273-0.968 2.055-1.013c2.461-0.139 4.8 0.4 6.8 1.869c1.049 0.8 1.3 1.7 0.7 2.9 c-0.901 1.7-1.953 3.319-2.887 5.002c-3.79 6.824-6.343 14.114-8.118 21.694c-0.12 0.514-0.239 1.027-0.361 1.5 c-0.333 1.39-0.99 2.583-2.266 3.296c-1.282 0.716-2.587 1.405-3.934 1.986c-1.505 0.649-2.773 0.133-3.831-1.049 c-1.479-1.652-2.516-3.575-3.456-5.561c-1.538-3.25-2.671-6.645-3.624-10.104c-0.073-0.267-0.151-0.532-0.227-0.798 C26.53 47.8 26.5 47.8 26.4 47.818z"/>
		<path fill-rule="evenodd" clip-rule="evenodd" fill="#F1F2F2" d="M150.739 38.43c0.926 0.5 1.8 1.1 2.8 1.6 c2.896 1.5 5.9 2.9 8.7 4.538c2.604 1.5 4.8 3.5 6.2 6.32c2.361 4.9 1 11.538-5.172 13.7 c-5.701 2.017-11.258 1.762-16.423-1.717c-0.653-0.44-1.231-0.993-1.882-1.524c-1.097 1.405-2.393 2.651-4.135 3.2 c-4.641 1.581-10.438 0.238-12.083-6.286c-0.485-1.923-0.665-3.964-0.689-5.954c-0.065-5.348 0.319-10.676 1.112-15.972 c0.589-3.934 3.678-7.344 7.365-8.055c1.745-0.336 3.3 0.8 3.3 2.609c-0.039 1.627-0.268 3.261-0.55 4.9 c-0.952 5.414-1.39 10.857-0.978 16.344c0.104 1.4 0.4 2.8 0.8 4.106c0.283 1.1 1.1 1.6 1.8 1.5 c1.048-0.145 1.723-0.931 1.856-2.017c0.444-3.595 2.461-6.041 5.696-7.501c1.344-0.606 2.372-0.071 2.7 1.4 c0.304 1.4 0.4 2.8 0.7 4.137c0.37 1.8 1 3.5 2.4 4.738c1.194 1.1 2.6 1.5 4.2 1 c1.782-0.551 2.487-2.44 1.747-4.514c-0.71-1.989-2.112-3.472-3.64-4.82c-2.26-1.995-4.612-3.884-6.897-5.85 c-1.686-1.45-3.316-2.962-4.476-4.898c-0.76-1.271-1.078-2.644-0.85-4.103c0.302-1.92 1.491-3.163 3.298-3.674 c2.404-0.68 4.873-1.128 7.284-1.789c3.146-0.862 6.264-1.836 9.394-2.761c0.732-0.216 1.457-0.473 2.201-0.632 c1.75-0.373 2.9 0.5 2.9 2.298c-0.039 2.794-0.927 5.269-2.891 7.323c-0.744 0.778-1.698 1.051-2.679 1.2 c-3.569 0.729-7.192 0.811-10.818 0.83c-0.627 0.004-1.255 0.001-1.883 0.001C150.821 38.2 150.8 38.3 150.7 38.43z"/>
		<path fill-rule="evenodd" clip-rule="evenodd" fill="#F1F2F2" d="M143.297 14.831c-0.107 3.668-1.071 6.268-3.313 8.3 c-1.078 0.979-2.341 1.594-3.809 1.749c-1.5 0.158-3.147-0.784-3.773-2.361c-0.939-2.369-1.179-4.798-0.146-7.227 c1.234-2.905 5.372-4.806 8.359-3.848C142.451 12 143.3 13.4 143.3 14.831z"/>
		<path fill-rule="evenodd" clip-rule="evenodd" fill="#F1F2F2" d="M114.141 58.876c-0.221-5.43 5.699-8.467 9.35-7.101 c1.444 0.5 2.4 1.7 2.4 3.277c0.113 3.277-0.853 6.14-3.334 8.387c-0.873 0.791-1.883 1.35-3.051 1.6 c-2.068 0.417-3.853-0.489-4.552-2.481C114.584 61.4 114.4 60.1 114.1 58.876z"/>
	</g>
</g>
</svg>
