<?xml version="1.0" encoding="UTF-8"?>
<svg width="230px" height="26px" viewBox="0 0 230 26" version="1.1" xmlns="http://www.w3.org/2000/svg" xmlns:xlink="http://www.w3.org/1999/xlink">
    <!-- Generator: Sketch 52.3 (67297) - http://www.bohemiancoding.com/sketch -->
    <title>logo</title>
    <desc>Created with Sketch.</desc>
    <defs>
        <path d="M27.328362,22.4029327 C26.9662966,22.7903425 26.5821078,23.1816251 26.2105678,23.5319887 C25.0920084,24.5852107 23.7618297,26.0296295 22.0688749,25.9995374 C21.4944795,25.9995374 19.1364353,24.4949345 19.1364353,22.8699635 C19.1364353,22.4185826 20.1643007,20.3121386 20.8898528,18.8677199 C19.8922187,19.8005736 19.5899054,19.981126 17.4737119,21.9070176 C16.5667718,22.7495952 15.5691377,23.8028172 14.7226604,24.9764075 C14.5715037,25.1870519 14.3598843,25.277328 14.0878023,25.277328 C13.1506309,25.277328 11.7902208,24.1037378 11.7902208,23.7426331 C11.7902208,21.0945321 21.2526288,6.16887172 23.4897476,4.93509738 C23.610673,4.87491326 23.7315983,4.84482121 23.882755,4.84482121 C24.7896951,4.84482121 26.1501052,5.80776704 26.1501052,6.62025258 C26.1501052,6.80080492 26.0594111,7.01144932 25.9082545,7.16190961 C24.608307,8.42577601 19.9829127,15.4071333 17.8062566,19.2288245 C19.9829127,17.363117 23.8525237,13.4210575 24.9710831,13.4210575 C25.9989485,13.4210575 26.5733438,15.1663968 26.5733438,16.3399871 C26.5733438,16.7612759 26.5128812,17.0922885 26.3617245,17.2728408 C24.8803891,18.927904 22.9153523,21.9972938 22.9153523,23.4718046 C22.9153523,23.6222649 22.9758149,23.6523569 23.0967403,23.6523569 C24.1779771,23.6523569 26.9600178,20.3258232 27.6187548,19.4562592 C28.677568,16.1500686 31.9094122,13.4210575 34.1311777,13.4210575 C34.2823344,13.4210575 34.4032597,13.4511496 34.5544164,13.4511496 C35.3706625,13.5715178 37.2450053,14.9256604 37.2450053,16.0691585 C37.0938486,18.2056946 34.8264984,20.7334274 33.4056257,20.7334274 C32.8009989,20.7334274 31.7429022,20.2519545 31.0778128,19.8306657 C30.7150368,20.7033353 30.6243428,21.3653606 30.6243428,21.8468335 C30.6243428,22.9301476 31.1080442,23.2912523 32.2266036,23.2912523 C33.8288644,23.2912523 35.5520505,22.0273859 37.4868559,19.5598372 C37.6984753,19.2890087 37.940326,19.1686404 38.1519453,19.1686404 C38.575184,19.1686404 38.93796,19.5598372 38.93796,20.0413101 C38.93796,20.1917704 38.9077287,20.3422307 38.8170347,20.4926909 C38.665878,20.7334274 37.8194006,21.9070176 36.6706099,22.9903317 C35.1590431,24.4347504 33.345163,25.3074201 31.7126709,25.3074201 C30.4429548,25.3074201 28.0244479,24.194014 27.5407466,23.140792 C27.4443229,22.9328364 27.373528,22.6823629 27.328362,22.4029327 Z M21.1317035,5.26611001 C21.1014721,5.71749086 20.7991588,6.04850349 20.4363828,6.04850349 C20.4061514,6.04850349 20.3456887,6.01841144 20.3154574,6.01841144 C18.8945846,5.68739881 16.2644585,5.56703058 13.6343323,5.56703058 L12.7878549,5.56703058 C9.43217666,10.6224962 3.05336488,22.0273859 2.41850683,24.4046584 C2.35804416,24.6754869 2.32781283,24.8861313 2.32781283,25.0365916 C2.32781283,25.4277883 2.41850683,25.6083407 2.41850683,25.7588009 C2.41850683,25.8791692 2.29758149,25.9092612 2.20688749,25.9092612 C1.29994742,25.9092612 0,24.1037378 0,23.2912523 C0,21.6361891 4.2626183,12.1872832 7.55783386,5.86795115 C6.83228181,5.86795115 5.53233438,6.16887172 4.32308097,6.16887172 C3.11382755,6.16887172 1.93480547,5.98831938 1.33017876,5.35638618 C0.241850683,4.21288801 0.241850683,1.53469492 0.241850683,0.96294583 C0.241850683,0.331012629 0.544164038,0.0601841144 0.786014721,0.0601841144 C0.906940063,0.0601841144 1.75341746,1.08331406 2.26735016,1.2638664 C2.9022082,1.50460286 3.93007361,1.59487903 5.16955836,1.59487903 C6.68112513,1.59487903 8.49500526,1.4745108 10.097266,1.38423463 C10.7018927,0.361104686 11.0646688,0 11.3669821,0 C11.9111462,0 12.8483176,0.601841144 13.5738696,1.29395846 C17.8364879,1.44441874 19.9829127,1.8957996 20.3456887,2.22681223 C20.7386961,2.58791692 21.1619348,3.88187538 21.1619348,4.90500532 C21.1619348,5.02537355 21.1317035,5.14574178 21.1317035,5.26611001 Z M91.8096569,19.5210721 C92.8466921,16.18581 96.1062669,13.4210575 98.3425342,13.4210575 C98.4936909,13.4210575 98.6146162,13.4511496 98.7657729,13.4511496 C99.5820189,13.5715178 101.456362,14.9256604 101.456362,16.0691585 C101.305205,18.2056946 99.0378549,20.7334274 97.6169821,20.7334274 C97.0123554,20.7334274 95.9542587,20.2519545 95.2891693,19.8306657 C94.9263933,20.7033353 94.8356993,21.3653606 94.8356993,21.8468335 C94.8356993,22.9301476 95.3194006,23.2912523 96.43796,23.2912523 C98.0402208,23.2912523 99.7634069,22.0273859 101.698212,19.5598372 C101.909832,19.2890087 102.151682,19.1686404 102.363302,19.1686404 C102.78654,19.1686404 103.149317,19.5598372 103.149317,20.0413101 C103.149317,20.1917704 103.119085,20.3422307 103.028391,20.4926909 C102.877234,20.7334274 102.030757,21.9070176 100.881966,22.9903317 C99.3703996,24.4347504 97.5565195,25.3074201 95.9240273,25.3074201 C94.6543113,25.3074201 92.2358044,24.194014 91.752103,23.140792 C91.6430729,22.9056483 91.5668111,22.6161423 91.5233176,22.2918798 C90.7112571,22.9882005 89.6903993,23.5620808 88.6080442,23.5620808 C87.9429548,23.5620808 87.3080967,23.3815284 86.794164,23.0806079 C85.1616719,25.0365916 83.6501052,25.9694453 82.9245531,25.9694453 C81.8966877,25.9694453 80.1130389,25.1569598 79.8107256,24.7657631 C79.5947461,24.5030044 78.959679,23.6524336 78.7069634,21.9882731 C77.7294921,22.9982874 76.574254,23.7426331 75.1853312,23.7426331 C74.7016299,23.7426331 74.2179285,23.682449 73.7039958,23.4718046 C72.5249737,24.6153028 71.1041009,25.6384327 69.5925342,25.6384327 C68.1716614,25.6384327 65.6926919,23.6523569 65.6926919,21.6361891 C65.6926919,17.3932091 70.5297056,13.8423463 72.6156677,13.8423463 C73.2807571,13.8423463 74.1272345,14.2937272 74.6713985,14.6849239 C75.0039432,14.5344636 75.3969506,14.4441874 75.7899579,14.4441874 C76.9992114,14.4441874 77.5131441,15.286765 77.5131441,16.3399871 C77.5131441,17.9348661 76.4550473,20.2519545 75.0946372,21.9371097 C75.1853312,21.9672017 75.3062566,21.9672017 75.3969506,21.9672017 C76.7955092,21.9672017 77.8780955,20.2651124 78.6447097,19.5301494 C78.9234883,16.3521114 80.4878511,14.1432669 81.5036803,14.1432669 C82.5013144,14.1432669 83.8314932,15.0460286 83.8314932,15.5575936 C83.8314932,15.6177777 83.8314932,15.7080538 83.7710305,15.768238 C83.4989485,16.1293426 82.0478444,18.1455105 82.0478444,22.4486747 C82.0478444,23.5018967 82.1687697,24.0134616 82.4408517,24.0134616 C83.0152471,24.0134616 84.2849632,22.7495952 85.2523659,21.5158209 C84.7686646,20.6732433 84.4965825,19.6802054 84.4965825,18.6871675 C84.4965825,15.5575936 86.9755521,13.2705972 88.5173502,13.2705972 C89.0312829,13.2705972 90.3614616,14.6849239 90.3614616,15.4673174 C90.3614616,17.2126567 88.7894322,20.4024148 87.8522608,21.6361891 C88.1243428,21.7866494 88.4871188,21.8769256 88.8196635,21.8769256 C89.9079916,21.8769256 90.663775,20.8537956 91.7218717,19.6200213 C91.7507371,19.5841058 91.7800331,19.551191 91.8096569,19.5210721 Z M34.3730284,15.9186982 C34.4032597,15.9487903 34.4334911,16.0089744 34.4334911,16.0992506 C34.4334911,16.6709997 33.4660883,18.4765231 32.8312303,18.4765231 C32.6196109,18.4765231 32.2568349,18.3561549 31.9847529,18.1756025 C32.9219243,16.7612759 33.9497897,15.8886062 34.2823344,15.8886062 C34.3125657,15.8886062 34.3427971,15.9186982 34.3730284,15.9186982 Z M64.3020505,24.2541981 C64.3020505,24.5551187 64.1811251,24.7657631 64.0299685,24.7657631 C63.9997371,24.7657631 63.9695058,24.7657631 63.9392744,24.735671 C63.0927971,24.3444743 62.095163,24.1639219 61.0068349,24.1639219 C59.8278128,24.1639219 58.5883281,24.3745663 57.3488433,24.735671 C54.5373291,25.5481565 51.8467403,25.9694453 50.5770242,25.9694453 C50.3049422,25.9694453 50.0933228,25.9393533 49.9723975,25.9092612 C48.8538381,25.5481565 47.5236593,22.2079382 47.5236593,21.5158209 C47.6143533,17.5436693 57.4395373,0.240736457 59.0115668,0.240736457 C60.1603575,0.240736457 62.1253943,2.19672017 62.1253943,3.28003423 C62.1253943,3.43049452 62.095163,3.5809548 61.9742376,3.70132303 C59.7371188,6.10868761 52.1490536,19.1686404 51.2118822,21.8769256 C51.5444269,21.9371097 51.9374343,21.9672017 52.4211356,21.9672017 C53.8420084,21.9672017 57.6511567,21.3051765 60.0696635,21.3051765 C61.3393796,21.3051765 62.2463197,21.4556368 62.9416404,21.7565573 C63.7578864,22.117662 64.3020505,23.5620808 64.3020505,24.2541981 Z M74.9434805,17.0321044 C74.8830179,17.0020123 74.8225552,17.0020123 74.7620925,17.0020123 C74.2179285,17.0020123 73.5830705,18.2357867 73.5830705,19.0181801 C73.5830705,19.2890087 73.6435331,19.5598372 73.7342271,19.6802054 C74.3993165,18.6871675 75.0039432,17.5436693 75.0039432,17.1524726 C75.0039432,17.0922885 74.9737119,17.0621964 74.9434805,17.0321044 Z M71.7994217,21.9972938 C71.3459516,21.3653606 71.1645636,20.6431512 71.1645636,19.9209419 C71.1645636,19.3191007 71.285489,18.7473516 71.5273396,18.1455105 C70.5297056,18.6570755 68.6855941,21.1848083 68.6855941,22.4486747 C68.6855941,22.9301476 68.9879075,23.170884 69.4716088,23.170884 C70.0762355,23.170884 70.9529443,22.7796873 71.7994217,21.9972938 Z M88.1243428,14.8353842 C88.0941115,14.8353842 88.0941115,14.8052921 88.0638801,14.8052921 C87.5197161,14.8052921 86.25,16.8816441 86.25,18.5367072 C86.25,18.957996 86.3104627,19.3792848 86.431388,19.7403895 C87.1871714,18.2959708 88.1243428,15.3469492 88.1243428,14.8955683 L88.1243428,14.8353842 Z M217.093977,20.1990062 C218.066288,18.8514768 219.208157,17.5999057 219.932965,16.0992506 C219.660883,15.768238 219.35857,15.1663968 219.35857,14.4140954 C219.35857,13.6016098 219.963197,12.2775593 221.323607,12.2775593 C222.502629,12.2775593 223.107256,13.2405052 223.107256,14.1432669 C223.107256,14.3840033 223.046793,14.6247398 222.98633,14.8353842 C224.044427,14.5946477 224.830442,13.4511496 225.495531,13.4511496 C226.523396,13.4511496 227.218717,15.4974094 227.218717,16.6108156 C227.218717,16.8816441 227.188486,17.0922885 227.097792,17.2126567 C226.553628,17.9348661 223.681651,21.5158209 223.681651,22.9903317 C223.681651,23.3213443 223.89327,23.5921728 224.225815,23.5921728 C224.860673,23.5921728 225.797844,22.5690429 226.130389,22.2380303 C227.339642,21.0042559 228.548896,19.2288245 229.213985,19.2288245 C229.637224,19.2288245 230,19.5297451 230,19.981126 C230,20.1616783 229.909306,20.3723227 229.758149,20.6130592 C228.518665,22.3884905 225.616456,25.6384327 223.258412,25.6384327 C222.07939,25.6384327 220.084122,24.0134616 220.084122,22.5690429 C220.084122,21.6060971 221.928233,18.1455105 222.623554,16.82146 C222.291009,16.851552 221.958465,16.8816441 221.62592,16.9117361 C221.145677,17.6413618 219.334065,20.6007477 218.169995,21.5513219 C217.111434,22.7761036 215.832173,23.7426331 214.249474,23.7426331 C213.765773,23.7426331 213.282072,23.682449 212.768139,23.4718046 C211.589117,24.6153028 210.168244,25.6384327 208.656677,25.6384327 C207.456184,25.6384327 205.500365,24.2206659 204.922543,22.5648517 C203.497339,24.0630779 201.468339,25.4879724 199.284963,25.4879724 C198.619874,25.4879724 198.045478,25.3676042 197.501314,25.0967757 C197.004954,24.8721968 196.121319,23.8263553 195.717486,22.8973839 C194.335945,24.2294178 192.600245,25.4578804 190.971346,25.4578804 C190.034175,25.4578804 189.03654,25.0666836 188.673764,24.0435537 C188.038906,24.6754869 187.252892,25.3976963 186.285489,25.3976963 C185.376222,25.3976963 184.331902,24.5642319 183.739258,23.364522 C182.327462,24.5618664 180.698221,25.4578804 178.999737,25.4578804 C178.546267,25.4578804 178.092797,25.3976963 177.639327,25.247236 C176.85339,25.0013652 175.934018,23.6929273 175.51306,22.7031227 C174.134817,24.0493049 172.246326,25.277328 170.383807,25.277328 C169.537329,25.277328 168.66062,25.247236 167.693218,23.9532775 C166.816509,24.6153028 165.546793,25.277328 164.337539,25.277328 C164.018792,25.277328 161.902975,25.0682487 161.394097,23.057986 C159.897046,24.4619557 158.114468,25.3074201 156.507624,25.3074201 C155.237907,25.3074201 152.819401,24.194014 152.335699,23.140792 C152.251145,22.9584341 152.186298,22.7433814 152.141158,22.5047783 C150.538552,24.1062468 148.556912,25.4578804 146.47082,25.4578804 C146.01735,25.4578804 145.56388,25.3976963 145.11041,25.247236 C144.312516,24.9976247 143.377096,23.6528699 142.965279,22.658174 C141.547842,24.078507 139.701868,25.4578804 137.975815,25.4578804 C137.038644,25.4578804 136.041009,25.0666836 135.678233,24.0435537 C135.043375,24.6754869 134.257361,25.3976963 133.289958,25.3976963 C131.929548,25.3976963 130.266824,23.5319887 130.266824,21.3653606 C130.357518,18.3260628 134.710831,13.4511496 137.552576,13.4511496 C138.278128,13.4511496 138.882755,14.4441874 139.245531,15.1363048 C140.001314,14.233543 140.243165,14.1432669 140.515247,14.1432669 C141.27103,14.1432669 142.903523,14.715016 142.903523,15.5876856 C142.903523,15.8886062 142.057045,17.0621964 141.815195,17.4233011 C140.605941,19.1084563 138.882755,21.9972938 138.882755,22.9301476 C138.882755,23.2009761 139.094374,23.2611602 139.305994,23.2611602 C140.365641,23.2611602 142.154429,21.1497952 143.047872,20.0858604 C144.448708,15.0423694 150.477454,5.29620206 153.48449,5.29620206 C154.451893,5.29620206 155.872766,6.62025258 155.872766,7.7336587 C155.872766,8.66651247 154.663512,11.3447056 152.607781,13.5715178 C150.582282,15.768238 149.161409,16.7311838 147.891693,17.3029329 C147.13591,18.9880881 146.380126,21.06444 146.380126,22.117662 C146.380126,22.7195032 146.712671,22.9602396 147.407992,22.9602396 C148.224238,22.9602396 149.524185,22.4787667 150.854364,21.3352685 C151.326769,20.9091237 151.856846,20.2103008 152.367148,19.6067281 C153.374486,16.2332799 156.670747,13.4210575 158.92613,13.4210575 C159.077287,13.4210575 159.198212,13.4511496 159.349369,13.4511496 C160.165615,13.5715178 162.039958,14.9256604 162.039958,16.0691585 C161.949264,17.0020123 161.102787,18.8075357 160.347003,18.8075357 C159.409832,18.8075357 158.654048,17.5737614 158.654048,17.363117 C158.654048,16.82146 159.198212,16.1895268 159.198212,15.9788824 C159.198212,15.8886062 159.077287,15.8886062 159.016824,15.8886062 C158.563354,15.8886062 155.389064,18.8376278 155.389064,21.6963732 C155.389064,22.6593191 155.691377,23.2912523 156.961094,23.2912523 C158.575142,23.2912523 160.246165,22.1286563 162.112429,19.7759384 C163.428686,17.298644 165.916661,14.1615693 166.574658,13.8122542 C166.695584,13.7520701 166.876972,13.7219781 167.028128,13.7219781 C167.9653,13.7219781 169.32571,14.8654762 169.32571,15.5876856 C169.32571,16.0691585 166.84674,19.4093769 166.030494,20.6431512 C165.456099,21.4857288 164.942166,22.3283064 164.942166,22.8097793 C164.942166,23.0204237 165.093323,23.140792 165.244479,23.140792 C165.879338,23.140792 166.937434,22.2681223 169.628023,17.904774 C170.383807,16.6709997 172.076761,13.7219781 172.923239,13.7219781 C173.830179,13.7219781 175.251052,14.9256604 175.251052,15.5876856 C175.251052,16.0390665 172.802313,19.3191007 171.955836,20.6431512 C171.290747,21.6361891 170.927971,22.5088588 170.927971,22.9602396 C170.927971,23.2611602 171.109359,23.4116205 171.381441,23.4116205 C172.334747,23.4116205 174.447443,21.4332529 175.609291,19.9708793 C177.068446,14.8958234 183.029064,5.29620206 186.013407,5.29620206 C186.98081,5.29620206 188.401682,6.62025258 188.401682,7.7336587 C188.401682,8.66651247 187.192429,11.3447056 185.136698,13.5715178 C183.111199,15.768238 181.690326,16.7311838 180.42061,17.3029329 C179.664826,18.9880881 178.909043,21.06444 178.909043,22.117662 C178.909043,22.7195032 179.241588,22.9602396 179.936909,22.9602396 C180.728524,22.9602396 181.97509,22.5073855 183.26296,21.4369812 C183.262558,21.4131457 183.262355,21.3892715 183.262355,21.3653606 C183.353049,18.3260628 187.706362,13.4511496 190.548107,13.4511496 C191.273659,13.4511496 191.878286,14.4441874 192.241062,15.1363048 C192.996845,14.233543 193.238696,14.1432669 193.510778,14.1432669 C194.266562,14.1432669 195.899054,14.715016 195.899054,15.5876856 C195.899054,15.8886062 195.052576,17.0621964 194.810726,17.4233011 C193.601472,19.1084563 191.878286,21.9972938 191.878286,22.9301476 C191.878286,23.2009761 192.089905,23.2611602 192.301525,23.2611602 C193.541009,23.2611602 195.778128,20.3723227 196.412986,19.6501133 C196.443741,19.6160985 196.474496,19.5840062 196.505208,19.5538362 C197.077514,18.4433612 197.825875,17.1251117 198.559411,15.8585141 L198.105941,15.8585141 C197.62224,15.8585141 196.775762,14.9858445 196.775762,14.233543 C196.775762,13.4210575 197.471083,13.3006893 200.222135,13.150229 C201.733701,10.7428644 202.489485,9.77991858 203.094111,9.77991858 C204.061514,9.77991858 205.33123,10.9535088 205.33123,11.6757182 C205.33123,12.0067308 204.847529,12.7289402 204.696372,12.9696766 C206.177708,13.0298608 206.268402,13.180321 206.268402,13.9025304 C206.268402,14.8955683 205.573081,16.2196188 204.696372,16.2196188 C204.242902,16.2196188 203.547581,15.9788824 202.912723,15.9186982 C201.733701,17.904774 200.433754,20.0413101 200.161672,20.522783 C199.647739,21.4255447 199.164038,22.2681223 199.164038,22.8398714 C199.164038,23.2310681 199.405889,23.4116205 199.980284,23.4116205 C200.675605,23.4116205 201.70347,23.0806079 202.731335,22.2982144 C203.700658,21.549958 204.462868,20.4022691 205.085727,19.6982818 C206.209114,16.3649023 209.921645,13.8423463 211.679811,13.8423463 C212.3449,13.8423463 213.191377,14.2937272 213.735542,14.6849239 C214.068086,14.5344636 214.461094,14.4441874 214.854101,14.4441874 C216.063354,14.4441874 216.577287,15.286765 216.577287,16.3399871 C216.577287,17.9348661 215.51919,20.2519545 214.15878,21.9371097 C214.249474,21.9672017 214.3704,21.9672017 214.461094,21.9672017 C215.519782,21.9672017 216.39741,20.9918586 217.093977,20.1990062 Z M98.5843849,15.9186982 C98.6146162,15.9487903 98.6448475,16.0089744 98.6448475,16.0992506 C98.6448475,16.6709997 97.6774448,18.4765231 97.0425868,18.4765231 C96.8309674,18.4765231 96.4681914,18.3561549 96.1961094,18.1756025 C97.1332808,16.7612759 98.1611462,15.8886062 98.4936909,15.8886062 C98.5239222,15.8886062 98.5541535,15.9186982 98.5843849,15.9186982 Z M131.717928,4.60408475 C131.717928,6.04850349 129.48081,11.3447056 128.452944,11.3447056 C127.636698,11.3447056 124.915878,9.65955036 124.915878,9.14798538 C124.915878,8.84706481 126.669295,6.19896378 127.032072,5.53693852 C127.364616,4.96518944 127.636698,4.51380858 127.636698,4.27307212 C127.636698,4.12261183 127.515773,4.09251978 127.364616,4.09251978 C126.276288,4.09251978 122.46714,6.98135727 119.383544,11.7058102 C118.295216,13.3909654 116.662723,16.7311838 116.662723,19.1987325 C116.662723,21.0042559 117.569664,22.2982144 119.897476,22.2982144 C122.557834,22.2982144 126.276288,20.7334274 128.180862,19.1686404 C128.271556,19.1084563 128.332019,19.0783643 128.422713,19.0783643 C129.057571,19.0783643 129.420347,19.8908498 129.420347,20.1315863 C129.420347,20.1917704 129.420347,20.2218624 129.390116,20.2519545 C127.243691,22.629227 123.222923,25.7588009 119.444006,25.7588009 C116.209253,25.7588009 112.400105,23.2912523 111.674553,21.5158209 C111.553628,21.2449924 111.493165,20.7936115 111.493165,20.2820465 C111.493165,18.1756025 112.460568,14.3539113 114.818612,10.53222 C119.141693,3.5809548 123.797319,0.993037887 126.759989,0.96294583 C128.997108,0.96294583 131.566772,3.00920572 131.717928,4.60408475 Z M138.036278,16.7612759 C138.006046,16.4904473 137.945584,16.1293426 137.764196,16.1293426 C137.1898,16.1293426 135.859621,17.8144979 135.043375,19.1686404 C133.924816,20.9741639 133.501577,22.2380303 133.501577,22.6593191 C133.501577,22.8398714 133.56204,22.8699635 133.652734,22.8699635 C134.438749,22.8699635 135.920084,20.6130592 136.28286,19.8908498 C136.827024,18.8075357 137.40142,17.6941296 138.036278,16.7612759 Z M153.696109,8.75678864 C153.665878,8.75678864 153.635647,8.72669658 153.575184,8.72669658 C152.849632,8.72669658 150.884595,12.0067308 149.493954,14.5645557 C151.67061,12.8794005 153.786803,9.8401027 153.786803,8.96743304 C153.786803,8.87715687 153.756572,8.7868807 153.696109,8.75678864 Z M186.225026,8.75678864 C186.194795,8.75678864 186.164564,8.72669658 186.104101,8.72669658 C185.378549,8.72669658 183.413512,12.0067308 182.022871,14.5645557 C184.199527,12.8794005 186.31572,9.8401027 186.31572,8.96743304 C186.31572,8.87715687 186.285489,8.7868807 186.225026,8.75678864 Z M191.031809,16.7612759 C191.001577,16.4904473 190.941115,16.1293426 190.759727,16.1293426 C190.185331,16.1293426 188.855152,17.8144979 188.038906,19.1686404 C186.920347,20.9741639 186.497108,22.2380303 186.497108,22.6593191 C186.497108,22.8398714 186.557571,22.8699635 186.648265,22.8699635 C187.43428,22.8699635 188.915615,20.6130592 189.278391,19.8908498 C189.822555,18.8075357 190.396951,17.6941296 191.031809,16.7612759 Z M210.863565,21.9972938 C210.410095,21.3653606 210.228707,20.6431512 210.228707,19.9209419 C210.228707,19.3191007 210.349632,18.7473516 210.591483,18.1455105 C209.593849,18.6570755 207.749737,21.1848083 207.749737,22.4486747 C207.749737,22.9301476 208.05205,23.170884 208.535752,23.170884 C209.140379,23.170884 210.017087,22.7796873 210.863565,21.9972938 Z M214.511479,17.0321044 C214.451016,17.0020123 214.390554,17.0020123 214.330091,17.0020123 C213.785927,17.0020123 213.151069,18.2357867 213.151069,19.0181801 C213.151069,19.2890087 213.211532,19.5598372 213.302226,19.6802054 C213.967315,18.6871675 214.571942,17.5436693 214.571942,17.1524726 C214.571942,17.0922885 214.54171,17.0621964 214.511479,17.0321044 Z" id="path-1"></path>
        <linearGradient x1="2.72591991%" y1="45.1063368%" x2="100%" y2="45.1063368%" id="linearGradient-3">
            <stop stop-color="#C7081F" offset="0%"></stop>
            <stop stop-color="#EC5700" offset="100%"></stop>
        </linearGradient>
    </defs>
    <g id="Designs" stroke="none" stroke-width="1" fill="none" fill-rule="evenodd">
        <g id="Main-screen" transform="translate(-272.000000, -37.000000)">
            <g id="logo" transform="translate(272.000000, 37.000000)">
                <mask id="mask-2" fill="white">
                    <use xlink:href="#path-1"></use>
                </mask>
                <use id="The-Love-Calculator-Copy-3" fill="#323232" xlink:href="#path-1"></use>
                <polygon id="Rectangle-Copy" fill="url(#linearGradient-3)" fill-rule="nonzero" mask="url(#mask-2)" points="-3 -3 230 -3 230 38 -3 38"></polygon>
            </g>
        </g>
    </g>
</svg>